<?xml version="1.0" standalone="no"?>
<!DOCTYPE svg PUBLIC "-//W3C//DTD SVG 20010904//EN"
 "http://www.w3.org/TR/2001/REC-SVG-20010904/DTD/svg10.dtd">
<svg version="1.0" xmlns="http://www.w3.org/2000/svg"
 width="600.000000pt" height="600.000000pt" viewBox="0 0 600.000000 600.000000"
 preserveAspectRatio="xMidYMid meet">
<metadata>
Created by potrace 1.14, written by Peter Selinger 2001-2017
</metadata>
<g transform="translate(0.000000,600.000000) scale(0.100000,-0.100000)"
fill="#000000" stroke="none">
<path d="M2821 5050 c-13 -3 -28 -14 -32 -25 -4 -12 -8 -14 -8 -6 -1 15 -16 6
-16 -10 0 -5 -3 -9 -7 -9 -16 -1 -59 -52 -96 -114 -43 -71 -37 -68 -181 -72
-73 -2 -137 -6 -142 -9 -9 -6 -34 -9 -154 -20 -123 -11 -158 -16 -177 -26 -10
-5 -18 -6 -18 -2 0 4 -5 2 -12 -5 -8 -8 -8 -15 3 -28 8 -10 9 -15 3 -11 -7 4
-15 -1 -19 -11 -13 -30 -16 -82 -5 -82 5 0 10 -4 10 -9 0 -13 -39 -21 -46 -9
-4 6 -9 6 -13 1 -4 -6 -49 -3 -116 8 -115 19 -131 15 -119 -24 3 -10 2 -16 -3
-15 -9 3 -13 -5 -13 -24 0 -9 3 -8 10 2 7 12 9 10 7 -7 0 -12 -5 -19 -9 -17
-10 6 -11 -10 -1 -20 4 -4 8 -30 10 -59 1 -29 4 -108 7 -177 3 -69 7 -134 9
-145 3 -11 7 -27 9 -35 1 -8 8 -18 13 -22 7 -5 7 -8 0 -8 -6 0 -11 -40 -13
-93 -2 -87 -6 -122 -16 -174 -3 -14 0 -23 7 -23 9 0 9 -2 1 -8 -6 -4 -10 -15
-8 -24 1 -10 -2 -18 -8 -18 -7 0 -7 -5 1 -13 6 -8 9 -16 6 -19 -3 -2 -12 -42
-21 -89 -9 -46 -19 -88 -23 -94 -5 -5 -7 -20 -6 -32 1 -12 -2 -20 -7 -17 -4 3
-8 -5 -9 -18 -1 -13 -3 -47 -5 -76 -4 -42 -2 -52 8 -46 10 6 10 5 2 -7 -9 -11
-5 -30 21 -84 51 -109 51 -111 13 -129 -17 -9 -49 -19 -70 -22 -31 -5 -38 -11
-38 -28 0 -12 8 -31 18 -42 43 -48 93 -120 99 -142 4 -16 -3 -34 -24 -60 -47
-60 -47 -59 0 -106 29 -30 43 -52 42 -68 -1 -13 2 -36 7 -53 5 -16 11 -37 13
-45 2 -8 10 -42 19 -75 9 -33 18 -89 21 -125 8 -106 11 -116 41 -158 42 -60
131 -97 219 -94 22 1 105 3 184 4 l143 3 27 -32 c15 -18 37 -50 48 -72 l22
-40 -22 -7 c-17 -5 -121 -69 -145 -89 -2 -2 -5 -11 -7 -22 -2 -10 -4 -19 -5
-20 -2 -2 -3 -6 -4 -10 -1 -5 -6 -19 -10 -32 -10 -30 -14 -141 -4 -147 9 -6
-5 -48 -33 -104 -17 -34 -23 -63 -23 -116 -1 -39 -6 -77 -12 -85 -26 -32 -25
-59 1 -112 25 -52 25 -54 8 -88 -9 -18 -22 -39 -27 -45 -6 -7 -20 -25 -31 -40
-11 -16 -49 -58 -85 -93 -36 -35 -64 -68 -62 -73 1 -5 -1 -8 -5 -5 -5 2 -22
-11 -39 -29 -19 -20 -27 -35 -20 -38 6 -2 3 -5 -6 -5 -20 -1 -74 -49 -70 -63
1 -5 -2 -7 -7 -4 -11 7 -42 -33 -35 -46 3 -4 -3 -5 -12 -1 -13 5 -16 3 -11
-10 4 -10 2 -14 -6 -11 -18 7 -110 -140 -131 -208 -23 -74 -28 -176 -10 -205
10 -15 11 -24 3 -29 -8 -4 -7 -9 2 -15 11 -7 11 -11 -2 -21 -35 -28 -27 -68
14 -68 15 0 17 -6 13 -34 -8 -50 12 -66 84 -66 32 0 61 4 64 9 3 5 -10 26 -29
46 -31 34 -50 77 -44 101 5 19 -14 65 -30 73 -23 14 -24 108 -1 171 10 28 16
50 13 50 -3 0 0 7 7 15 7 8 22 33 34 54 31 58 60 93 173 210 57 58 103 106
103 106 0 7 194 194 198 190 9 -9 12 -297 3 -314 -11 -20 -24 -87 -24 -121 1
-25 5 -59 20 -175 10 -76 9 -193 -2 -270 -5 -33 -9 -78 -9 -100 l-1 -40 1347
-3 1347 -2 -5 32 c-5 39 -9 58 -16 78 -3 8 -22 65 -41 125 -27 83 -150 443
-158 462 -1 2 -3 8 -4 13 -1 6 -4 13 -5 18 -1 4 -3 12 -4 17 -12 53 -20 75
-28 75 -5 0 -7 4 -4 8 7 12 -21 118 -46 172 -11 24 -22 56 -25 69 -2 14 -8 30
-14 37 -5 6 -6 14 -3 17 3 3 2 12 -2 19 -5 7 -10 23 -12 36 -2 18 3 24 27 28
17 4 37 14 46 24 23 25 43 157 44 299 1 68 4 127 5 130 2 3 7 40 11 81 9 98
11 121 21 205 5 39 8 108 7 155 -2 67 -5 87 -19 97 -10 7 -14 13 -10 13 5 0 3
7 -4 15 -7 8 -10 15 -7 15 3 0 -24 28 -60 62 -36 35 -76 75 -90 90 -15 16 -32
24 -42 21 -13 -4 -14 -3 -1 5 12 9 12 13 -2 29 -13 16 -43 100 -53 156 -2 9
-7 22 -11 29 -4 6 -8 41 -10 77 -1 36 -3 70 -3 74 -1 5 -17 24 -36 43 -29 28
-34 38 -25 53 13 25 13 44 0 36 -5 -3 -10 2 -11 12 0 10 -2 27 -5 38 -9 41 -6
72 15 145 22 82 28 112 37 180 8 64 11 210 5 210 -3 0 -6 53 -6 118 1 161 -25
274 -112 490 -14 35 -32 70 -39 77 -8 7 -14 17 -14 22 0 4 -14 26 -30 47 -17
22 -30 46 -30 53 0 7 -4 13 -9 13 -5 0 -18 15 -29 33 -17 28 -66 88 -147 177
-12 14 -31 32 -41 40 -11 8 -40 32 -66 53 -25 20 -51 37 -57 37 -6 0 -11 3
-11 8 0 4 -10 12 -23 18 -12 6 -67 34 -122 62 -55 28 -141 63 -192 78 l-92 27
-35 56 c-55 90 -80 104 -178 105 -21 0 -38 3 -38 6 0 3 -17 6 -37 7 -39 1 -51
3 -91 17 -30 10 -111 14 -141 6z m1437 -1890 c0 -17 7 -39 14 -48 10 -13 10
-14 0 -8 -10 6 -12 -2 -7 -38 4 -33 2 -46 -7 -46 -10 0 -10 -2 0 -9 10 -6 8
-10 -10 -14 -44 -12 -47 -9 -31 35 8 24 13 53 10 65 -2 13 -1 23 4 23 4 0 6 9
4 20 -2 11 0 22 5 25 5 3 6 13 3 22 -4 10 -2 14 4 10 5 -3 10 -20 11 -37z"/>
</g>
</svg>
