<svg xmlns="http://www.w3.org/2000/svg" width="100" height="100" viewBox="0 0 100 97"><path d="M17.715.004h64.57A17.722 17.722 0 0 1 94.813 5.16a17.552 17.552 0 0 1 5.183 12.465v61.766a17.56 17.56 0 0 1-5.187 12.453 17.733 17.733 0 0 1-12.524 5.152h-64.57A17.739 17.739 0 0 1 5.188 91.84 17.552 17.552 0 0 1 .003 79.375v-61.75A17.552 17.552 0 0 1 5.188 5.16 17.722 17.722 0 0 1 17.715.004Zm0 0" style="stroke:none;fill-rule:nonzero;fill:#300;fill-opacity:1"/><path d="M48.457 58.2H32.961l-3.168 9.741a.727.727 0 0 1-.793.579h-7.836c-.46 0-.586-.247-.46-.747L34.12 29.348c.125-.414.25-.871.418-1.368.168-.89.258-1.793.258-2.695a.417.417 0 0 1 .336-.457h10.793c.332 0 .5.125.539.332l15.203 42.695c.125.457 0 .665-.418.665h-8.707a.623.623 0 0 1-.668-.454Zm-13.082-8.423h10.582A58.49 58.49 0 0 0 45 46.793c-.375-1.121-.75-2.32-1.125-3.563-.418-1.285-.793-2.53-1.207-3.816a99.757 99.757 0 0 1-1.125-3.687c-.332-1.16-.625-2.239-.918-3.235h-.082a50.809 50.809 0 0 1-1.41 5.348c-.63 1.988-1.254 4.062-1.918 6.133a79.552 79.552 0 0 1-1.832 5.804ZM70.75 31.918a5.165 5.165 0 0 1-3.71-1.453 5.364 5.364 0 0 1-1.411-3.813 4.863 4.863 0 0 1 1.5-3.687 5.361 5.361 0 0 1 3.71-1.453c1.622 0 2.872.5 3.79 1.453a5.677 5.677 0 0 1-.082 7.5 4.906 4.906 0 0 1-3.797 1.453Zm-4.668 35.98V35.98c0-.414.164-.578.543-.578h8.246c.379 0 .543.207.543.578v31.918c0 .457-.164.665-.543.665h-8.164c-.418 0-.625-.25-.625-.665Zm0 0" style="stroke:none;fill-rule:nonzero;fill:#ff9a00;fill-opacity:1"/></svg>