<svg xmlns="http://www.w3.org/2000/svg" xmlns:xlink="http://www.w3.org/1999/xlink" width="100" height="100"><defs><clipPath id="b"><path d="M0 0h100v100H0z"/></clipPath><filter id="a" width="100%" height="100%" x="0%" y="0%" filterUnits="objectBoundingBox"><feColorMatrix in="SourceGraphic" values="0 0 0 0 1 0 0 0 0 1 0 0 0 0 1 0 0 0 1 0"/></filter><mask id="d"><g filter="url(#a)"><path d="M0 0h100v100H0z" style="fill:#000;fill-opacity:.301961;stroke:none"/></g></mask><g id="c" clip-path="url(#b)"><path d="m72.145 26.953-4.008 18.035-29.66-15.828-2.606 18.637-5.008 22.644 29.055 20.442h32.266V41.582ZM7.617 9.117h84.567v2.809H7.617Zm0 0" style="stroke:none;fill-rule:nonzero;fill:#000;fill-opacity:1"/></g></defs><path d="M0 1.3h100v97.4H0Zm0 0" style="stroke:none;fill-rule:nonzero;fill:#eb43a3;fill-opacity:1"/><path d="M7.617 9.121h84.567V90.88H7.617Zm0 0" style="stroke:none;fill-rule:nonzero;fill:#412534;fill-opacity:1"/><use xlink:href="#c" mask="url(#d)"/><path d="M38.582 29.156v41.266h-7.531V29.156Zm33.363-2.203v35.082c0 3.059.125 6.367.246 8.387h-6.734l-.305-4.715h-.125c-1.773 3.305-5.386 5.387-9.734 5.387-7.102 0-12.73-6.059-12.73-15.242-.063-9.98 6.18-15.918 13.343-15.918 4.102 0 7.043 1.714 8.387 3.918h.125V26.953Zm-7.527 26.082c0-.613-.063-1.347-.184-1.96-.675-2.938-3.062-5.325-6.492-5.325-4.836 0-7.527 4.285-7.527 9.855 0 5.45 2.691 9.43 7.469 9.43 3.058 0 5.754-2.082 6.488-5.328.183-.672.246-1.406.246-2.203Zm0 0" style="stroke:none;fill-rule:nonzero;fill:#eb43a3;fill-opacity:1"/></svg>