<svg xmlns="http://www.w3.org/2000/svg" width="100" height="100" viewBox="0 0 100 66"><defs><linearGradient id="a" x1="-37.631" x2="11.367" y1="-37.545" y2="11.412" gradientTransform="matrix(.82401 0 0 -.8151 59.187 23.942)" gradientUnits="userSpaceOnUse"><stop offset="0" style="stop-color:#ffd521;stop-opacity:1"/><stop offset=".05" style="stop-color:#ffd521;stop-opacity:1"/><stop offset=".501" style="stop-color:#f50000;stop-opacity:1"/><stop offset=".95" style="stop-color:#b900b4;stop-opacity:1"/><stop offset=".95" style="stop-color:#b900b4;stop-opacity:1"/><stop offset="1" style="stop-color:#b900b4;stop-opacity:1"/></linearGradient><linearGradient id="b" x1=".487" x2="49.505" y1=".536" y2="49.554" gradientTransform="matrix(.82368 0 0 -.81544 27.778 55.037)" gradientUnits="userSpaceOnUse"><stop offset="0" style="stop-color:#ffd521;stop-opacity:1"/><stop offset=".05" style="stop-color:#ffd521;stop-opacity:1"/><stop offset=".501" style="stop-color:#f50000;stop-opacity:1"/><stop offset=".95" style="stop-color:#b900b4;stop-opacity:1"/><stop offset=".95" style="stop-color:#b900b4;stop-opacity:1"/><stop offset="1" style="stop-color:#b900b4;stop-opacity:1"/></linearGradient><linearGradient id="c" x1="-12.569" x2="36.431" y1="-12.53" y2="36.482" gradientTransform="matrix(.82358 0 0 -.81554 38.54 44.382)" gradientUnits="userSpaceOnUse"><stop offset="0" style="stop-color:#ffd521;stop-opacity:1"/><stop offset=".05" style="stop-color:#ffd521;stop-opacity:1"/><stop offset=".501" style="stop-color:#f50000;stop-opacity:1"/><stop offset=".95" style="stop-color:#b900b4;stop-opacity:1"/><stop offset=".95" style="stop-color:#b900b4;stop-opacity:1"/><stop offset="1" style="stop-color:#b900b4;stop-opacity:1"/></linearGradient></defs><path d="M64.531 21.258c0-1.465-1.199-2.645-2.668-2.645-1.472 0-2.672 1.18-2.672 2.645 0 1.457 1.2 2.637 2.672 2.637 1.469 0 2.668-1.18 2.668-2.637" style="stroke:none;fill-rule:nonzero;fill:url(#a)"/><path d="M68.086 41.89c-.098 2.145-.461 3.31-.762 4.083-.406 1.027-.886 1.761-1.668 2.53-.773.77-1.515 1.247-2.55 1.642-.782.304-1.965.664-4.133.765-2.34.102-3.035.125-8.977.125-5.934 0-6.633-.023-8.976-.125-2.168-.101-3.344-.46-4.125-.765-1.043-.395-1.778-.872-2.555-1.641a6.714 6.714 0 0 1-1.664-2.531c-.301-.774-.668-1.938-.762-4.082-.113-2.32-.137-3.02-.137-8.887 0-5.883.024-6.574.137-8.895.094-2.144.461-3.308.762-4.09.398-1.023.883-1.753 1.664-2.523.777-.77 1.512-1.246 2.555-1.648.78-.301 1.957-.657 4.125-.758 2.343-.102 3.042-.13 8.976-.13 5.941 0 6.637.028 8.977.13 2.168.101 3.351.457 4.132.758 1.036.402 1.778.879 2.551 1.648.781.77 1.262 1.5 1.668 2.524.301.78.664 1.945.762 4.09.11 2.32.137 3.011.137 8.894 0 5.867-.028 6.566-.137 8.887Zm4-17.96c-.11-2.344-.48-3.946-1.035-5.34-.567-1.45-1.32-2.676-2.559-3.902-1.234-1.22-2.472-1.97-3.937-2.536-1.414-.543-3.024-.918-5.395-1.02-2.367-.112-3.125-.132-9.164-.132-6.031 0-6.793.02-9.164.133-2.363.101-3.973.476-5.395 1.02-1.457.566-2.695 1.316-3.93 2.534-1.237 1.227-1.991 2.454-2.562 3.903-.55 1.394-.922 2.996-1.039 5.34-.101 2.343-.129 3.093-.129 9.074 0 5.973.028 6.719.13 9.066.116 2.34.488 3.938 1.038 5.34.57 1.442 1.325 2.676 2.563 3.895 1.234 1.222 2.472 1.976 3.93 2.539 1.421.547 3.03.914 5.394 1.023 2.371.106 3.133.133 9.164.133 6.04 0 6.797-.027 9.164-.133 2.371-.11 3.98-.476 5.395-1.023 1.465-.563 2.703-1.317 3.937-2.54 1.238-1.218 1.992-2.452 2.559-3.894.554-1.402.926-3 1.035-5.34.11-2.347.137-3.093.137-9.066 0-5.98-.028-6.73-.137-9.074Zm0 0" style="stroke:none;fill-rule:nonzero;fill:url(#b)"/><path d="M49.996 40.328c-4.086 0-7.406-3.277-7.406-7.324 0-4.055 3.32-7.34 7.406-7.34 4.09 0 7.414 3.285 7.414 7.34 0 4.047-3.324 7.324-7.414 7.324Zm0-18.629c-6.3 0-11.406 5.063-11.406 11.305 0 6.234 5.105 11.293 11.406 11.293 6.305 0 11.414-5.059 11.414-11.293 0-6.242-5.11-11.305-11.414-11.305Zm0 0" style="stroke:none;fill-rule:nonzero;fill:url(#c)"/></svg>