<svg xmlns="http://www.w3.org/2000/svg" width="100" height="100" viewBox="0 0 100 114"><path d="M33.555 51.559v-3.457a30.194 30.194 0 0 0-3.895-.262C13.723 47.84.758 59.895.758 74.719c0 9.09 4.887 17.136 12.34 22.004-4.993-4.965-7.77-11.504-7.762-18.301 0-14.61 12.594-26.524 28.219-26.863" style="stroke:none;fill-rule:nonzero;fill:#00f2ea;fill-opacity:1"/><path d="M34.32 89.738c6.739 0 12.235-5.289 12.485-11.886l.023-58.875h10.895a20.24 20.24 0 0 1-.356-3.727H42.492l-.027 58.875c-.25 6.594-5.746 11.887-12.48 11.887-2.024 0-4.012-.489-5.801-1.422a12.528 12.528 0 0 0 10.136 5.148m43.746-50.777v-3.273c-4 .003-7.914-1.145-11.27-3.31a20.776 20.776 0 0 0 11.27 6.583" style="stroke:none;fill-rule:nonzero;fill:#00f2ea;fill-opacity:1"/><path d="M66.355 33.215a20.022 20.022 0 0 1-5.082-13.313h-3.972a20.33 20.33 0 0 0 9.054 13.313M29.633 61.957c-6.89.008-12.469 5.496-12.477 12.266a12.249 12.249 0 0 0 6.688 10.859 12.044 12.044 0 0 1-2.364-7.152c.008-6.774 5.586-12.262 12.477-12.27 1.29 0 2.516.211 3.684.567V51.328a28.392 28.392 0 0 0-3.684-.266c-.215 0-.43.016-.645.02v11.441a12.515 12.515 0 0 0-3.68-.566" style="stroke:none;fill-rule:nonzero;fill:#ff004f;fill-opacity:1"/><path d="M76.082 40.855v11.368a35.648 35.648 0 0 1-20.644-6.543v29.718c0 14.848-12.254 26.922-27.313 26.922a27.435 27.435 0 0 1-15.656-4.879 27.443 27.443 0 0 0 19.98 8.594c15.063 0 27.317-12.078 27.317-26.922V49.395a35.644 35.644 0 0 0 20.644 6.539V41.309a20.96 20.96 0 0 1-4.328-.454" style="stroke:none;fill-rule:nonzero;fill:#ff004f;fill-opacity:1"/><path d="M56.934 74.422v-29.77a37.023 37.023 0 0 0 21.132 6.555V39.824a21.291 21.291 0 0 1-11.507-6.562c-4.852-3.043-8.204-7.867-9.266-13.36H46.172l-.024 58.7c-.257 6.574-5.87 11.847-12.746 11.847-4.109-.004-7.96-1.914-10.355-5.129-4.203-2.129-6.836-6.324-6.84-10.902.008-6.797 5.715-12.3 12.77-12.309 1.312 0 2.57.207 3.765.57V51.196c-15.113.34-27.3 12.29-27.3 26.942 0 7.09 2.855 13.539 7.507 18.355a28.517 28.517 0 0 0 16.028 4.887c15.414 0 27.957-12.094 27.957-26.957" style="stroke:none;fill-rule:nonzero;fill:#fff;fill-opacity:1"/></svg>