<svg xmlns="http://www.w3.org/2000/svg" width="100" height="100" viewBox="0 0 100 66"><path d="M80.223 17.871a7.892 7.892 0 0 0-5.578-5.558C69.727 11 50 11 50 11s-19.727 0-24.645 1.313a7.885 7.885 0 0 0-5.578 5.558C18.457 22.773 18.457 33 18.457 33s0 10.227 1.32 15.129a7.879 7.879 0 0 0 5.578 5.559C30.273 55 50 55 50 55s19.727 0 24.645-1.313a7.885 7.885 0 0 0 5.578-5.558C81.543 43.227 81.543 33 81.543 33s0-10.227-1.32-15.129" style="stroke:none;fill-rule:nonzero;fill:red;fill-opacity:1"/><path d="M43.547 42.285 60.035 33l-16.488-9.285Zm0 0" style="stroke:none;fill-rule:nonzero;fill:#fff;fill-opacity:1"/></svg>